<svg width="14" height="14" viewBox="0 0 14 14" fill="none" xmlns="http://www.w3.org/2000/svg">
<path d="M7.2904 0C8.03444 0.00122971 8.41148 0.00516346 8.73729 0.0148623L8.86562 0.0190605C9.01384 0.0243298 9.16009 0.0309412 9.33641 0.0392053C10.0399 0.0717067 10.5198 0.183002 10.9413 0.346632C11.3771 0.514666 11.7451 0.74166 12.1126 1.10914C12.4795 1.47662 12.7065 1.84575 12.8751 2.28045C13.0382 2.70137 13.1495 3.18179 13.1826 3.88535C13.1904 4.06165 13.1968 4.20789 13.202 4.35615L13.2062 4.48446C13.2158 4.81024 13.2202 5.18733 13.2216 5.93137L13.2222 6.42438C13.2222 6.48461 13.2222 6.54676 13.2222 6.61089L13.2222 6.79739L13.2218 7.2904C13.2205 8.03444 13.2166 8.41148 13.2069 8.73729L13.2027 8.86562C13.1974 9.01384 13.1908 9.16009 13.1826 9.33641C13.15 10.0399 13.0382 10.5198 12.8751 10.9413C12.7071 11.3771 12.4795 11.7451 12.1126 12.1126C11.7451 12.4795 11.3754 12.7065 10.9413 12.8751C10.5198 13.0382 10.0399 13.1495 9.33641 13.1826C9.16009 13.1904 9.01384 13.1968 8.86562 13.202L8.73729 13.2062C8.41148 13.2158 8.03444 13.2202 7.2904 13.2216L6.79739 13.2222C6.73716 13.2222 6.67502 13.2222 6.61089 13.2222L6.42438 13.2222L5.93137 13.2218C5.18733 13.2205 4.81024 13.2166 4.48446 13.2069L4.35615 13.2027C4.20789 13.1974 4.06165 13.1908 3.88535 13.1826C3.18179 13.15 2.70247 13.0382 2.28045 12.8751C1.8452 12.7071 1.47662 12.4795 1.10914 12.1126C0.74166 11.7451 0.515222 11.3754 0.346632 10.9413C0.183002 10.5198 0.072262 10.0399 0.0392053 9.33641C0.0313511 9.16009 0.0249446 9.01384 0.0197547 8.86562L0.0155962 8.73729C0.00592382 8.41148 0.00151411 8.03444 8.60641e-05 7.2904L0 5.93137C0.00122971 5.18733 0.00516346 4.81024 0.0148623 4.48446L0.0190605 4.35615C0.0243298 4.20789 0.0309412 4.06165 0.0392053 3.88535C0.0717067 3.18124 0.183002 2.70192 0.346632 2.28045C0.514666 1.8452 0.74166 1.47662 1.10914 1.10914C1.47662 0.74166 1.84575 0.515222 2.28045 0.346632C2.70192 0.183002 3.18124 0.072262 3.88535 0.0392053C4.06165 0.0313511 4.20789 0.0249446 4.35615 0.0197547L4.48446 0.0155962C4.81024 0.00592382 5.18733 0.00151411 5.93137 8.60641e-05L7.2904 0ZM6.61089 3.30521C4.78423 3.30521 3.30521 4.78583 3.30521 6.61089C3.30521 8.43753 4.78583 9.91655 6.61089 9.91655C8.43753 9.91655 9.91655 8.43588 9.91655 6.61089C9.91655 4.78423 8.43588 3.30521 6.61089 3.30521ZM6.61089 4.62747C7.70632 4.62747 8.59429 5.51512 8.59429 6.61089C8.59429 7.70632 7.70658 8.59429 6.61089 8.59429C5.51546 8.59429 4.62747 7.70658 4.62747 6.61089C4.62747 5.51546 5.51512 4.62747 6.61089 4.62747ZM10.0818 2.3135C9.62612 2.3135 9.25542 2.68367 9.25542 3.13936C9.25542 3.59504 9.62559 3.96578 10.0818 3.96578C10.5375 3.96578 10.9083 3.59562 10.9083 3.13936C10.9083 2.68367 10.5369 2.31293 10.0818 2.3135Z" fill="white"/>
</svg>
