<svg xmlns="http://www.w3.org/2000/svg" width="2197" height="2197" fill="none" viewBox="0 0 2197 2197"><g clip-path="url(#a)"><path fill="#fff" d="M1845.24 292.84C2061.59 493.466 2197 780.17 2197 1098.5c0 606.68-491.82 1098.5-1098.5 1098.5-196.409 0-380.778-51.55-540.318-141.85 125.854-30.01 247.43-72.49 365.09-125.34 185.898-83.5 354.668-192.07 507.328-323.03 122.46-105.52 233.33-222.58 330.91-349.4 116.68-150.66 211.17-313.755 296.44-481.9a220 220 0 0 0 11.98-28.281c-26.83 33.77-151.09 162.487-254.31 257.111-103.22 94.62-211.72 176.06-370.65 287.66-158.94 111.59-257.4 173.51-404.28 231.42-70.052 27.61-141.3 50.4-218.779 48.45-65.906-1.66-119.933-43.26-133.133-104.31-9.946-45.89.154-89.9 16.761-132.6 55.715-143.19 142.157-267.82 254.784-376.682C1073.59 848.74 1199.12 752.773 1326.51 659.113c170.66-125.109 345.18-245.04 518.73-366.273M1098.5 0c240.36 0 462.69 77.197 643.54 208.148-131.34 65.144-269.81 143.99-365.13 197.332-175.06 98.039-350.74 194.939-525.898 292.452-146.701 81.576-294.016 162.103-439.243 246.044-55.991 32.368-104.247 70.984-133.778 128.424-44.879 87.47-91.354 174.33-136.97 261.54-6.139 11.29-2.271 21.39 9.209 28.4 11.481 7 20.629 2.57 30.698-3.65 130.523-80.73 261.906-160.21 389.084-245.49 6.415-4.23 12.8-9.43 20.659-4.23 7.367 4.84 6.63 12.55 5.096 19.96-4.052 19.32-13.661 36.46-23.392 53.53-47.294 82.64-94.474 165.33-141.543 248.09-65.531 115.11-132.002 229.82-197.387 345.07C87.195 1589.04 0 1353.95 0 1098.5 0 491.815 491.815 0 1098.5 0M990.007 254.849c.798-32.514-33.244-54.17-66.366-41.27-18.388 7.151-36.192 15.702-54.088 23.933-81.715 37.534-165.58 70.953-243.55 115.608-35.148 20.139-68.853 42.146-96.081 71.741-59.614 64.912-82.883 143.745-91.478 226.927-3.867 37.3 24.313 64.035 63.267 64.21 13.721 1.693 27.627-4.29 40.919-11.674 57.833-31.872 115.267-64.707 173.592-95.47 46.383-24.37 87.915-53.207 115.788-96.987q75.914-119.666 151.858-239.331c3.702-5.254 5.824-11.37 6.139-17.687"/><mask id="b" width="2197" height="2197" x="0" y="0" maskUnits="userSpaceOnUse" style="mask-type:alpha"><rect width="2197" height="2197" fill="#d9d9d9" rx="1098.5"/></mask><g fill="#1e1e1e" mask="url(#b)"><path d="M139.303 2099.62a191.6 191.6 0 0 0 49.115 2.92c90.271-1.04 180.26-9.81 268.875-26.21 162.079-29.42 317.161-79.68 465.979-146.52 185.898-83.5 354.668-192.07 507.328-323.03 122.46-105.52 233.33-222.58 330.91-349.4 116.68-150.66 211.17-313.755 296.44-481.899a220 220 0 0 0 11.98-28.282c-26.83 33.769-151.09 162.487-254.31 257.111-103.22 94.62-211.72 176.06-370.65 287.66-158.94 111.59-257.4 173.51-404.28 231.42-70.052 27.61-141.3 50.4-218.779 48.45-65.906-1.66-119.933-43.26-133.133-104.31-9.946-45.89.154-89.9 16.761-132.6 55.715-143.19 142.157-267.82 254.784-376.682C1073.6 848.739 1199.12 752.773 1326.51 659.113 1544.64 499.2 1769.1 347.75 1989.75 191.222c38.86-27.465 37.85-27.138 114.25-85.546-75.48-71.757-511.6 179.206-727.09 299.805-175.06 98.038-350.74 194.938-525.898 292.451-146.701 81.577-294.016 162.102-439.243 246.043-55.991 32.368-104.247 70.985-133.777 128.425-44.879 87.47-91.354 174.33-136.97 261.54-6.14 11.29-2.272 21.39 9.209 28.4 11.481 7 20.628 2.57 30.697-3.65 130.523-80.73 261.906-160.21 389.084-245.49 6.415-4.23 12.8-9.43 20.659-4.23 7.367 4.84 6.63 12.55 5.096 19.96-4.052 19.32-13.661 36.46-23.392 53.53-47.293 82.64-94.475 165.33-141.543 248.09-100.502 176.55-203.214 352.13-300.83 530.17l-.5.92c-12.758 23.33-25.533 46.7-32.684 72.34-9.7 34.41 5.925 57.79 42.485 65.64M501.711 715.999c-38.954-.176-67.134-26.911-63.266-64.211 8.595-83.182 31.863-162.015 91.476-226.927 27.229-29.595 60.934-51.602 96.082-71.74 77.97-44.656 161.834-78.075 243.549-115.609 17.897-8.231 35.701-16.782 54.089-23.933 33.122-12.901 67.164 8.756 66.366 41.27-.314 6.317-2.437 12.433-6.139 17.687A1510288 1510288 0 0 0 832.01 511.867c-27.873 43.78-69.406 72.616-115.789 96.987-58.324 30.763-115.758 63.598-173.591 95.47-13.292 7.384-27.198 13.367-40.919 11.675"/></g></g><defs><clipPath id="a"><path fill="#fff" d="M0 0h2197v2197H0z"/></clipPath></defs></svg>